<svg width="6.666748" height="6.666664" viewBox="0 0 6.66675 6.66666" fill="none" xmlns="http://www.w3.org/2000/svg" xmlns:xlink="http://www.w3.org/1999/xlink">
	<desc>
			Created with Pixso.
	</desc>
	<defs/>
	<path id="Vector" d="M6.42 1.42C6.74 1.09 6.74 0.56 6.42 0.24C6.09 -0.09 5.56 -0.09 5.24 0.24L3.33 2.15L1.42 0.24C1.09 -0.09 0.56 -0.09 0.24 0.24C-0.09 0.56 -0.09 1.09 0.24 1.42L2.15 3.33L0.24 5.24C-0.09 5.56 -0.09 6.09 0.24 6.42C0.56 6.74 1.09 6.74 1.42 6.42L3.33 4.51L5.24 6.42C5.56 6.74 6.09 6.74 6.42 6.42C6.74 6.09 6.74 5.56 6.42 5.24L4.51 3.33L6.42 1.42Z" fill="#F6F6F6" fill-opacity="1.000000" fill-rule="evenodd"/>
</svg>
