<svg width="60.000000" height="60.000000" viewBox="0 0 60 60" fill="none" xmlns="http://www.w3.org/2000/svg" xmlns:xlink="http://www.w3.org/1999/xlink">
	<desc>
			Created with Pixso.
	</desc>
	<defs>
		<clipPath id="clip11_1733">
			<rect id="ic:baseline-photo-camera" rx="-0.500000" width="59.000000" height="59.000000" transform="translate(0.500000 0.500000)" fill="white" fill-opacity="0"/>
		</clipPath>
	</defs>
	<g opacity="0.500000">
		<g clip-path="url(#clip11_1733)">
			<path id="Vector" d="M58.23 11.14C58.75 11.35 59.19 11.71 59.51 12.18C59.83 12.64 59.99 13.19 60 13.75L60 46.24C59.99 46.8 59.83 47.35 59.51 47.81C59.19 48.28 58.75 48.64 58.23 48.85L31.04 59.72C30.37 59.99 29.62 59.99 28.95 59.72L1.76 48.85C1.24 48.64 0.79 48.28 0.48 47.81C0.16 47.35 0 46.8 0 46.24L0 13.75C0 13.19 0.16 12.64 0.48 12.18C0.79 11.71 1.24 11.35 1.76 11.14L27.91 0.69L27.94 0.67L28.95 0.27C29.62 0 30.37 0 31.04 0.27L32.05 0.67L32.09 0.69L58.23 11.14ZM39.01 7.5L15.93 16.72L6.92 13.12L3.75 14.39L3.75 15.89L28.12 25.64L28.12 55.35L30 56.1L31.87 55.35L31.87 25.65L56.25 15.9L56.25 14.4L53.07 13.12L30 22.35L20.98 18.75L44.06 9.52L39.01 7.5Z" fill="#A6A9C7" fill-opacity="1.000000" fill-rule="evenodd"/>
		</g>
	</g>
</svg>
